<svg width="1050" height="200" viewBox="150 300 1050 200" fill="none" xmlns="http://www.w3.org/2000/svg">
<path d="M1174 458.642C1174 458.042 1176.5 455.542 1177.1 454.742C1194 431.242 1198.4 400.542 1192.8 372.442C1184 327.942 1148.3 299.842 1102.7 302.242C992 308.142 994.7 482.642 1101.7 488.342L1194.5 488.142L1195.3 487.242L1174 458.642ZM1166.5 418.842C1166.2 420.042 1165.8 421.242 1165.3 422.442C1162.7 429.642 1153.1 431.142 1148.5 425.042L1128.3 398.142H1098.6L1129.3 439.442C1135.6 447.942 1131.6 460.342 1121.4 463.142C1121.1 463.142 1120.9 463.242 1120.6 463.342C1102.6 467.242 1081.7 462.242 1068.4 450.742C1036.1 422.642 1038.3 355.742 1076.7 333.742C1096.4 322.442 1125 323.642 1143.6 336.742C1168.6 354.442 1174.5 390.842 1166.5 418.842Z" fill="#0A0A0A"/>
<path d="M219 383.442C203.9 380.542 187.1 375.142 187.1 356.742C187.1 316.742 253.5 313.842 266 349.142C266.7 351.142 267 354.442 267.7 356.042C268.2 357.242 269.3 357.342 270.4 357.342C275.6 357.742 285.8 357.842 290.9 357.342C292.8 357.142 293.3 356.542 293.2 354.642C291.3 329.842 273.5 310.542 249.8 304.742C208.5 294.542 159.7 312.642 162.1 361.642C164.1 402.042 200.9 403.242 231.9 409.042C251.1 412.642 273.3 417.742 269.5 442.642C264.8 473.142 219.5 475.542 198.3 461.842C189.4 456.142 184 447.842 181.1 437.742C180.7 436.242 180.4 431.842 178.8 431.442H155.9C155.6 431.442 155 432.442 154.9 432.842C154.7 433.742 155.2 436.642 155.4 437.742C161.7 482.242 202.8 497.242 243.2 491.142C278.1 485.842 301 459.342 294.1 423.242C287.3 387.842 247.2 388.942 219.2 383.442H219Z" fill="#0A0A0A"/>
<path d="M402.3 306.441L401.9 306.941L342.9 486.941C342.9 487.841 343.9 488.441 344.7 488.341C351.5 487.741 359.4 489.041 366 488.341C366.6 488.341 367.1 488.341 367.4 487.741L380.2 448.141C381.4 445.041 383.3 441.041 385.6 438.541C389.7 434.141 393.9 433.241 399.6 432.641C417.2 430.941 436.7 432.641 454.5 432.641C467.5 434.641 470 444.041 473.7 454.841C477.3 465.441 480.4 476.141 483.9 486.741C484.4 487.741 485 488.141 486 488.341C492.5 489.041 500.3 487.741 506.9 488.341C507.7 488.341 508.3 487.941 508.7 487.241L449.8 306.441H402.2H402.3ZM445.8 410.041C439.7 412.241 420.6 411.741 413.5 411.341C406.3 410.941 398.8 408.741 397 400.841C395.8 395.441 397.7 389.941 399.2 384.741C402.7 372.441 406.6 358.841 410.8 346.741C412.5 341.841 415.3 335.441 420.7 333.641C425.2 332.141 431.8 332.741 435.4 336.141C436.3 337.041 437.5 338.941 438.3 339.941C443.8 355.341 449.5 371.241 453.7 387.141C456.2 396.341 456.3 406.241 445.8 409.941V410.041Z" fill="#0A0A0A"/>
<path d="M881 308.042C881.2 307.542 880.3 306.242 880 306.242H741.9L741.3 306.842V328.542C741.3 328.842 742.6 329.742 743.1 329.542C756.1 330.242 770.1 328.542 782.9 329.542C788.1 329.942 793.8 332.742 796.5 337.242C798.9 341.142 798.9 345.042 799.5 349.442V487.742C799.6 487.942 800 488.442 800.1 488.442H822.2C822.2 488.442 822.9 487.842 823 487.642L823.2 346.242C823.8 337.642 829.3 331.142 837.9 329.742L879.8 329.442C880.6 328.842 880.9 328.442 881.1 327.442C881.8 321.442 880.5 314.242 881.1 308.142L881 308.042Z" fill="#0A0A0A"/>
<path d="M567.5 487.541V307.441L568.5 306.441H636.9C681.9 306.441 694.9 333.541 694.9 360.541C694.9 387.541 684.5 385.741 684.5 399.841C684.5 413.941 694.9 411.541 694.9 434.941V487.541L693.9 488.541H672L671 487.541V442.541C671 425.641 662.4 416.541 645.5 416.541H611.7C598.7 416.541 591.1 424.041 591.1 436.841V487.541L590.1 488.541H568.5L567.5 487.541ZM670.6 361.841C670.6 343.341 662.5 329.541 637.3 329.541H611.8C598.8 329.541 591.2 337.041 591.2 349.841V374.041C591.2 386.841 598.7 394.341 611.8 394.341H637.3C662.5 394.341 670.6 380.241 670.6 361.841Z" fill="#0A0A0A"/>
<path d="M961 306.242H940.2L939.3 307.042L939.1 486.942C939.2 487.842 940 488.442 940.9 488.442H961.4C962.3 488.242 962.9 487.542 962.9 486.642V307.742C962.7 306.842 962 306.242 961.1 306.242H961Z" fill="#0A0A0A"/></svg>
